<svg xmlns="http://www.w3.org/2000/svg" data-name="Layer 1" viewBox="0 0 512 512" id="grass"><path fill="#67bc46" d="m93.83 475.43 30.484-19.523a512.78 512.78 0 0 1-16.631-43.706 511.714 511.714 0 0 1-25.503-147.16 310.12 310.12 0 0 0-10.901 121.685l.055.52a323.485 323.485 0 0 0 13.048 62.097 329.61 329.61 0 0 0 9.449 26.088Z"></path><path fill="#5dae47" d="M94.19 504.515h36.327a513.86 513.86 0 0 1-2.178-81.406c.086-1.667.185-3.333.284-4.986a512.012 512.012 0 0 1 29.242-141.421 310.168 310.168 0 0 0-54.228 109.477 320.47 320.47 0 0 0-7.78 37.675 328.93 328.93 0 0 0-1.667 80.661Z"></path><path fill="#74bf4b" d="M111.467 504.515h-36.2a512.778 512.778 0 0 0-9.567-45.774A511.714 511.714 0 0 0 7.805 321.064a310.12 310.12 0 0 1 74.81 96.591l.234.468a323.485 323.485 0 0 1 22.504 59.327 329.602 329.602 0 0 1 6.114 27.065Z"></path><path fill="#5dae47" d="M288.577 505.015h-41.034a270.066 270.066 0 0 0-10.845-51.887c-17.253-54.858-48.532-92.575-70.045-114.113 40.487 17.308 76.28 39.531 95.69 80.524 6.42 13.557 11.173 27.817 15.524 42.149 1.182 3.893 10.666 43.327 10.71 43.327Z"></path><path fill="#67bc46" d="M389.338 429.302h-51.22a724.527 724.527 0 0 0 3.07-114.78c-.12-2.35-.26-4.7-.4-7.03a721.922 721.922 0 0 0-41.23-199.4 437.328 437.328 0 0 1 76.46 154.36 451.85 451.85 0 0 1 10.97 53.12 463.782 463.782 0 0 1 2.35 113.73Z"></path><path fill="#5dae47" d="M354.465 504.515h51.04a723.01 723.01 0 0 1 13.49-64.54 721.5 721.5 0 0 1 81.63-194.12 437.259 437.259 0 0 0-105.48 136.19l-.33.66a456.104 456.104 0 0 0-31.73 83.65 464.74 464.74 0 0 0-8.62 38.16Z"></path><path fill="#5dae47" d="M188.385 110.985a848.733 848.733 0 0 1 110.35 255.62 862.28 862.28 0 0 1 22.49 137.91h51.41a605.16 605.16 0 0 0-3.62-38.16 603.562 603.562 0 0 0-14.47-75.57 594.658 594.658 0 0 0-18.3-58.15 578.83 578.83 0 0 0-147.86-221.65Z"></path><path fill="#74bf4b" d="M504.635 110.985a848.734 848.734 0 0 0-110.35 255.62 862.283 862.283 0 0 0-22.49 137.91h-51.41c.74-11.81 1.9-24.58 3.62-38.16a603.564 603.564 0 0 1 14.47-75.57 594.636 594.636 0 0 1 18.3-58.15 578.83 578.83 0 0 1 147.86-221.65Z"></path><path fill="#67bc46" d="M332.625 504.515h-51.04a722.988 722.988 0 0 0-13.49-64.54 721.5 721.5 0 0 0-81.63-194.12 437.259 437.259 0 0 1 105.48 136.19l.33.66a456.103 456.103 0 0 1 31.73 83.65 464.72 464.72 0 0 1 8.62 38.16Z"></path><path fill="#b28966" d="M504.365 512.015h-497a7.5 7.5 0 1 1 0-15h497a7.5 7.5 0 0 1 0 15Z"></path></svg>