<svg xmlns="http://www.w3.org/2000/svg" viewBox="0 0 64 64" id="hat"><path fill="#ae89bf" d="M50.5 49.33l-1.932.396A82.75 82.75 0 0 1 13.5 49.33l9-23.095-3-8.738-11 7.833 12-20 20 11.5 10 32.5z"></path><path fill="#4b6c85" d="M26.375 44.171a83.624 83.624 0 0 1-10.342-1.342l-1.091 2.8c3.778.793 7.599 1.3 11.433 1.562v-3.02zM48.473 42.743a81.899 81.899 0 0 1-10.848 1.441v3.003c3.667-.25 7.324-.719 10.943-1.462l.774-.159-.869-2.823z"></path><path fill="#fecb5b" d="M26.375 42.198v7.024c3.745.253 7.504.253 11.25-.004v-7.026a82.816 82.816 0 0 1-11.25.006zm8.858 4.992a47.634 47.634 0 0 1-6.467.003v-2.888c2.153.146 4.313.144 6.467-.004v2.889z"></path><path fill="#ae89bf" d="M50.474 49.245c5.068.931 8.026 2.221 8.026 3.584 0 2.743-11.963 5-26.5 5s-26.5-2.257-26.5-5c0-1.355 2.919-2.648 8.034-3.586"></path><path fill="#004463" d="M32 58.315c-13.082 0-26.985-1.923-26.985-5.485 0-1.67 2.836-3.037 8.431-4.064a.485.485 0 1 1 .174.955c-5.636 1.034-7.636 2.321-7.636 3.109 0 1.886 9.897 4.515 26.015 4.515s26.015-2.629 26.015-4.515c0-.787-1.998-2.074-7.628-3.107a.486.486 0 0 1 .174-.955c5.589 1.026 8.423 2.394 8.423 4.063.002 3.562-13.901 5.484-26.983 5.484z"></path><path fill="#004463" d="M31.933 51.91a83.004 83.004 0 0 1-18.541-2.107.484.484 0 0 1-.344-.648l8.936-22.93-2.731-7.956-10.472 7.457a.485.485 0 0 1-.697-.645l12-20a.487.487 0 0 1 .658-.171l20 11.499a.49.49 0 0 1 .222.278l10 32.501a.485.485 0 0 1-.366.619l-1.932.396a83.322 83.322 0 0 1-16.733 1.707zm-17.776-2.93c11.361 2.519 22.904 2.61 34.313.27l1.409-.288-9.787-31.808L20.671 5.988l-10.56 17.599 9.107-6.485a.485.485 0 0 1 .741.239l3 8.738a.483.483 0 0 1-.007.333L14.157 48.98z"></path><path fill="#004463" d="M19.112 35.415a.485.485 0 0 1-.452-.661l4.149-10.647a.485.485 0 0 1 .904.352l-4.149 10.647a.485.485 0 0 1-.452.309zM21.889 24.939a.486.486 0 0 1-.459-.328l-2.777-8.088a.485.485 0 1 1 .918-.314l2.777 8.088a.485.485 0 0 1-.459.642zM31.972 49.896c-1.878 0-3.759-.063-5.63-.189a.486.486 0 0 1-.452-.484V42.2c0-.135.056-.263.154-.354a.526.526 0 0 1 .364-.13c3.706.251 7.469.248 11.184-.007a.486.486 0 0 1 .518.484v7.025a.485.485 0 0 1-.452.484 83.918 83.918 0 0 1-5.686.194zm-5.112-1.129c3.423.213 6.876.211 10.28-.004v-6.054c-3.418.214-6.87.215-10.28.007v6.051z"></path><path fill="#004463" d="M26.375 47.677l-.033-.001a84.412 84.412 0 0 1-11.5-1.571.482.482 0 0 1-.352-.65l1.091-2.8a.48.48 0 0 1 .545-.3 83.395 83.395 0 0 0 10.282 1.333.486.486 0 0 1 .452.484v3.02a.483.483 0 0 1-.485.485zm-10.772-2.406a83.095 83.095 0 0 0 10.288 1.4v-2.048c-3.3-.244-6.509-.66-9.552-1.24l-.736 1.888zM37.625 47.673a.485.485 0 0 1-.485-.485v-3.004c0-.255.198-.467.452-.484a81.434 81.434 0 0 0 10.784-1.432.492.492 0 0 1 .56.333l.869 2.824a.485.485 0 0 1-.366.619l-.774.158c-3.491.716-7.194 1.21-11.007 1.471h-.033zm.485-3.037v2.031a81.873 81.873 0 0 0 10.36-1.417l.251-.051-.583-1.895a82.647 82.647 0 0 1-10.028 1.332zM31.983 47.786c-1.084 0-2.169-.037-3.25-.109a.486.486 0 0 1-.452-.484v-2.888a.483.483 0 0 1 .518-.484c2.126.145 4.28.144 6.401-.004a.519.519 0 0 1 .364.13c.098.092.154.22.154.354v2.889a.485.485 0 0 1-.452.484 48.38 48.38 0 0 1-3.283.112zm-2.732-1.05c1.831.106 3.676.106 5.497-.002v-1.917a48.232 48.232 0 0 1-5.497.003v1.916z"></path></svg>